<?xml version="1.0" standalone="no"?><!DOCTYPE svg PUBLIC "-//W3C//DTD SVG 1.1//EN" "http://www.w3.org/Graphics/SVG/1.1/DTD/svg11.dtd"><svg t="1628042628719" class="icon" viewBox="0 0 1024 1024" version="1.1" xmlns="http://www.w3.org/2000/svg" p-id="604" xmlns:xlink="http://www.w3.org/1999/xlink" width="200" height="200"><defs><style type="text/css"></style></defs><path d="M748.307692 315.076923H827.076923a39.384615 39.384615 0 0 1 39.384615 39.384615v472.615385a39.384615 39.384615 0 0 1-39.384615 39.384615H196.923077a39.384615 39.384615 0 0 1-39.384615-39.384615v-472.615385A39.384615 39.384615 0 0 1 196.923077 315.076923h78.769231v-39.384615a236.307692 236.307692 0 0 1 472.615384 0V315.076923z m-275.692307 304.521846V708.923077h78.76923v-89.324308a78.769231 78.769231 0 1 0-78.76923 0zM669.538462 315.076923v-39.384615a157.538462 157.538462 0 0 0-315.076924 0V315.076923h315.076924z" p-id="605"></path></svg>