<svg t="1599446169739" class="icon" viewBox="0 0 1024 1024" version="1.1" xmlns="http://www.w3.org/2000/svg" p-id="18659" width="128" height="128"><path d="M792.522897 534.426833c-49.142697 33.273701-108.011553 52.726019-171.487537 52.726019-63.475984 0-121.832937-18.940415-170.975635-52.214116-133.094805 65.011693-224.725459 203.225529-224.725459 362.939296 0 169.439925 792.937897 166.88041 792.937897 0-0.511903-160.225669-92.142557-298.951408-225.749266-363.451199zM354.333846 270.796738C354.333846 121.321034 473.607268 0 621.03536 0s266.701513 121.321034 266.701513 270.796738-119.273422 270.796738-266.701513 270.796738-266.701513-121.321034-266.701514-270.796738zM178.239181 911.699415c0 6.142837 1.023806 12.285674 2.559515 17.916609-100.333007-16.380899-175.070859-48.118891-175.070859-96.749686 0-138.213836 79.34498-257.999161 194.523177-314.308501 39.928442 27.130864 88.047333 43.511763 139.749545 45.047473-98.797298 82.928302-161.761379 207.832657-161.761378 348.094105zM310.31018 270.796738c0-68.595015 21.49993-132.582902 58.356953-184.285115-6.65474-0.511903-12.797577-1.023806-19.452318-1.023806-121.321034 0-219.606429 99.821104-219.606428 223.18975s98.285395 223.18975 219.094525 223.189751c27.130864 0 53.237922-5.119031 77.297368-14.333287-70.642627-57.84505-115.6901-146.916189-115.6901-246.737293z" p-id="18660"></path></svg>