<?xml version="1.0" standalone="no"?><!DOCTYPE svg PUBLIC "-//W3C//DTD SVG 1.1//EN" "http://www.w3.org/Graphics/SVG/1.1/DTD/svg11.dtd"><svg t="1599445825399" class="icon" viewBox="0 0 1024 1024" version="1.1" xmlns="http://www.w3.org/2000/svg" p-id="16396" xmlns:xlink="http://www.w3.org/1999/xlink" width="128" height="128"><defs><style type="text/css"></style></defs><path d="M784.945324 568.79409l10.807088 54.376715c9.100705 2.957729 17.803255 6.598011 26.164528 10.807088l46.242959-30.714881 64.330612 64.330611-30.714881 46.299839c4.209076 8.304394 7.849358 17.006943 10.807088 25.99389L966.959433 750.808199v91.007054l-54.433595 10.977726a180.876521 180.876521 0 0 1-10.807087 25.99389l30.77176 46.242959-64.330612 64.330612-46.299839-30.714881a180.876521 180.876521 0 0 1-25.99389 10.807088L784.945324 1023.829362h-91.007054l-10.977726-54.433595a180.876521 180.876521 0 0 1-25.99389-10.807087l-46.24296 30.77176-64.330611-64.330612 30.71488-46.242959a180.876521 180.876521 0 0 1-10.750208-25.99389L511.924161 841.815253v-91.007054l54.433594-10.920847a180.876521 180.876521 0 0 1 10.807088-25.99389l-30.77176-46.299839 64.330611-64.330611 46.24296 30.714881c8.304394-4.209076 17.006943-7.792479 25.99389-10.750209L693.93827 568.79409h91.007054zM398.165343 455.035272c85.091596 0 162.959507 31.169916 222.739765 82.702661a284.510804 284.510804 0 0 0-165.51908 245.37777L455.044752 796.311726v113.758818H56.888889v-113.758818a341.276454 341.276454 0 0 1 341.276454-341.276454z m341.276454 284.397045a56.879409 56.879409 0 1 0 0 113.758818 56.879409 56.879409 0 0 0 0-113.758818zM398.165343 0a227.517636 227.517636 0 1 1 0 455.035272 227.517636 227.517636 0 0 1 0-455.035272z" p-id="16397"></path></svg>